<svg width="23" height="28" viewBox="0 0 23 28" fill="none" xmlns="http://www.w3.org/2000/svg">
<path d="M20.2199 24.1071C19.1093 25.7663 17.9318 27.3854 16.1387 27.4122C14.3457 27.4523 13.7703 26.3551 11.7364 26.3551C9.68912 26.3551 9.06021 27.3854 7.36083 27.4523C5.60792 27.5192 4.28321 25.686 3.15921 24.0669C0.87106 20.7618 -0.881848 14.6735 1.4732 10.5789C2.63735 8.545 4.72478 7.26043 6.98616 7.22028C8.69893 7.19352 10.3314 8.38443 11.3885 8.38443C12.4322 8.38443 14.4126 6.95266 16.4867 7.16676C17.3564 7.2069 19.7918 7.51466 21.3573 9.81619C21.2369 9.89648 18.4537 11.529 18.4804 14.9143C18.5206 18.9554 22.0264 20.3069 22.0665 20.3203C22.0264 20.4139 21.5045 22.2471 20.2199 24.1071ZM12.5794 2.69751C13.5562 1.58689 15.1753 0.743893 16.5134 0.690369C16.6874 2.25594 16.0585 3.8349 15.1218 4.9589C14.1985 6.09628 12.6731 6.97942 11.1744 6.859C10.9737 5.32018 11.723 3.71447 12.5794 2.69751Z" fill="#101010"/>
</svg>
