<svg width="12" height="21" viewBox="0 0 12 21" fill="none" xmlns="http://www.w3.org/2000/svg">
<path d="M8.11655 0C6.75737 0 5.45386 0.539931 4.49278 1.50101C3.5317 2.4621 2.99177 3.76561 2.99177 5.12478V7.97804H0.249314C0.111914 7.97804 0 8.08885 0 8.22736V11.9948C0 12.1322 0.110806 12.2441 0.249314 12.2441H2.99177V19.9728C2.99177 20.1102 3.10257 20.2221 3.24108 20.2221H7.00849C7.14589 20.2221 7.2578 20.1113 7.2578 19.9728V12.2441H10.0246C10.1388 12.2441 10.2385 12.1665 10.2662 12.0557L11.208 8.2883C11.2173 8.25154 11.2181 8.21314 11.2103 8.17604C11.2025 8.13894 11.1863 8.10411 11.163 8.07419C11.1397 8.04428 11.1099 8.02007 11.0759 8.00341C11.0418 7.98675 11.0044 7.97807 10.9665 7.97804H7.2578V5.12478C7.2578 5.01201 7.28002 4.90034 7.32317 4.79616C7.36633 4.69197 7.42958 4.5973 7.50932 4.51756C7.58907 4.43782 7.68373 4.37456 7.78792 4.3314C7.89211 4.28825 8.00378 4.26604 8.11655 4.26604H10.9975C11.1349 4.26604 11.2468 4.15523 11.2468 4.01672V0.249314C11.2468 0.111914 11.136 0 10.9975 0H8.11655Z" fill="#3D4DA6"/>
</svg>
