<svg width="28" height="28" viewBox="0 0 28 28" fill="none" xmlns="http://www.w3.org/2000/svg">
<path d="M26.8122 11.5212H25.7343V11.4656H13.6915V16.818H21.2537C20.1505 19.9338 17.1859 22.1704 13.6915 22.1704C9.25767 22.1704 5.66287 18.5756 5.66287 14.1418C5.66287 9.70805 9.25767 6.11325 13.6915 6.11325C15.7381 6.11325 17.6 6.88533 19.0178 8.14649L22.8026 4.36168C20.4127 2.13442 17.216 0.760864 13.6915 0.760864C6.30182 0.760864 0.310486 6.75219 0.310486 14.1418C0.310486 21.5315 6.30182 27.5228 13.6915 27.5228C21.0811 27.5228 27.0724 21.5315 27.0724 14.1418C27.0724 13.2446 26.9801 12.3689 26.8122 11.5212Z" fill="#FFC107"/>
<path d="M1.85331 7.91366L6.24963 11.1378C7.4392 8.19266 10.3201 6.11325 13.6915 6.11325C15.7381 6.11325 17.6 6.88533 19.0178 8.14649L22.8026 4.36168C20.4127 2.13442 17.216 0.760864 13.6915 0.760864C8.55183 0.760864 4.09462 3.66253 1.85331 7.91366Z" fill="#FF3D00"/>
<path d="M13.6915 27.5228C17.1478 27.5228 20.2883 26.2001 22.6627 24.0491L18.5213 20.5446C17.133 21.6011 15.4361 22.1723 13.6915 22.1704C10.2111 22.1704 7.25588 19.9512 6.14258 16.8542L1.77905 20.2161C3.9936 24.5496 8.49094 27.5228 13.6915 27.5228Z" fill="#4CAF50"/>
<path d="M26.8122 11.5212H25.7343V11.4656H13.6915V16.818H21.2537C20.726 18.3009 19.7754 19.5967 18.5193 20.5453L18.5213 20.544L22.6627 24.0484C22.3697 24.3147 27.0724 20.8323 27.0724 14.1418C27.0724 13.2446 26.9801 12.3689 26.8122 11.5212Z" fill="#1976D2"/>
</svg>
