<svg width="600" height="600" viewBox="0 0 600 600" fill="none" xmlns="http://www.w3.org/2000/svg">
<path d="M468.382 34.4492C472.376 38.1379 474.735 41.1649 475.356 46.6552C475.325 47.852 475.295 49.0489 475.263 50.282C475.244 51.4757 475.226 52.6695 475.207 53.8994C474.961 57.5631 474.435 61.087 473.767 64.6958C474.841 64.8852 475.914 65.0747 477.02 65.2699C504.36 70.3746 535.196 79.5554 552.796 102.541C564.885 120.764 568.37 140.547 564.487 162.008C555.945 200.727 529.228 231.595 502.486 259.469C500.959 261.07 500.959 261.07 499.401 262.704C493.884 268.361 488.011 273.365 481.835 278.294C478.706 280.853 475.752 283.526 472.795 286.28C467.061 291.485 460.912 295.92 454.574 300.339C450.178 303.411 445.881 306.605 441.585 309.814C421.331 324.909 400.022 337.855 378.036 350.283C376.53 351.142 376.53 351.142 374.993 352.019C338.12 372.87 287.229 397.728 244.172 396.853C230.644 396.149 230.644 396.149 218.771 401.422C214.048 407.517 211.286 414.481 208.515 421.62C206.305 427.074 203.624 432.249 200.957 437.491C192.951 453.385 186.369 469.689 180.592 486.505C180.194 487.656 179.796 488.807 179.386 489.993C173.967 505.835 169.509 521.409 168.055 538.148C167.913 539.756 167.913 539.756 167.769 541.396C167.596 543.481 167.445 545.568 167.32 547.657C166.743 555.148 164.564 559.643 159.351 565.221C155.282 567.252 151.479 567.303 147.086 566.565C139.23 562.873 135.599 556.327 132.427 548.566C119.071 496.331 149.933 437.96 175.062 394.243C175.472 393.524 175.883 392.804 176.306 392.063C177.347 390.267 178.421 388.489 179.498 386.714C180.908 383.764 180.908 383.764 179.783 380.735C179.26 379.756 178.737 378.776 178.198 377.767C177.703 376.767 177.208 375.767 176.698 374.737C175.652 372.72 174.605 370.704 173.557 368.688C170.615 362.393 169.626 355.521 171.921 348.86C174.012 344.413 175.943 340.397 180.592 338.334C189.263 337.252 196.458 340.107 204.524 343.114C205.378 341.543 205.378 341.543 206.249 339.94C214.639 324.689 223.901 309.999 233.243 295.317C233.82 294.41 234.397 293.503 234.991 292.569C250.152 268.802 265.816 245.294 282.305 222.426C282.913 221.579 283.521 220.733 284.148 219.861C288.029 214.456 291.929 209.066 295.846 203.687C297.203 201.822 298.558 199.955 299.91 198.087C309.291 185.128 319.047 172.611 329.325 160.349C332.659 156.351 335.94 152.309 339.22 148.266C340.501 146.688 341.782 145.111 343.063 143.533C343.696 142.752 344.33 141.972 344.983 141.168C346.962 138.734 348.947 136.307 350.934 133.88C358.944 124.089 366.795 114.201 374.446 104.128C373.262 104.449 372.077 104.769 370.856 105.099C365.19 106.514 359.467 107.558 353.724 108.618C288.167 120.735 221.663 138.359 161.445 167.459C160.452 167.928 159.459 168.398 158.436 168.881C144.72 175.367 131.824 182.407 119.563 191.358C118.372 192.214 117.181 193.071 115.955 193.953C103.442 203.516 90.2009 218.421 87.254 234.375C87.0535 237.159 86.9363 239.949 86.8801 242.74C86.813 244.921 86.813 244.921 86.7445 247.146C86.9571 251.127 86.9571 251.127 89.1939 253.994C92.9099 256.461 95.2369 256.407 99.6691 256.257C100.986 256.228 102.304 256.199 103.661 256.169C107.434 255.896 111.05 255.319 114.777 254.689C116.818 254.559 118.864 254.481 120.909 254.465C121.9 254.448 122.89 254.431 123.91 254.414C127.08 254.722 128.898 255.291 131.529 257.079C134.987 262.203 134.64 267.869 133.923 273.808C130.745 281.308 124.304 284.812 117.17 288.147C100.211 294.336 80.6572 294.904 63.8542 288.105C50.5574 281.328 41.3937 270.762 36.2381 256.864C34.3118 250.862 33.9579 245.204 34.0038 238.931C34.0106 237.834 34.0174 236.736 34.0245 235.606C34.5742 214.504 46.0579 197.204 59.7314 181.799C60.424 181.007 61.1166 180.215 61.8302 179.399C75.7081 164.58 93.7172 153.608 111.187 143.561C112.149 142.996 113.112 142.431 114.103 141.85C194.835 94.6925 304.21 65.1793 400.505 63.264C407.076 63.1068 411.853 62.9765 417.002 58.6465C418.419 57.1194 419.791 55.5497 421.115 53.9414C432.494 41.4652 450.648 25.911 468.382 34.4492ZM440.86 104.278C439.945 105.245 439.03 106.212 438.088 107.209C435.138 110.476 432.205 113.751 429.337 117.091C426.702 120.117 423.985 123.06 421.265 126.01C416.33 131.407 411.686 136.978 407.092 142.665C404.282 146.048 401.36 149.289 398.379 152.523C393.096 158.268 388.128 164.202 383.226 170.272C380.696 173.383 378.13 176.465 375.571 179.552C367.458 189.342 359.501 199.236 351.71 209.282C350.786 210.473 349.862 211.663 348.91 212.89C346.453 216.07 344.004 219.256 341.561 222.446C340.225 224.189 338.887 225.93 337.549 227.671C328.724 239.152 319.933 250.637 311.586 262.47C309.444 265.506 307.27 268.516 305.079 271.516C294.783 285.615 284.889 299.964 275.126 314.435C274.267 315.706 273.408 316.976 272.523 318.285C269.894 322.176 267.273 326.072 264.655 329.969C263.842 331.175 263.028 332.38 262.19 333.623C258.562 339.045 255.086 344.336 252.39 350.283C291.833 346.134 334.759 324.053 369.593 306.139C371.286 305.27 372.983 304.406 374.681 303.548C404.051 288.702 431.58 270.78 457.014 249.909C457.713 249.336 458.412 248.763 459.133 248.172C477.84 232.694 495.36 215.796 509.666 196.138C510.835 194.562 510.835 194.562 512.027 192.954C525.066 174.926 537.302 153.436 534.795 130.417C532.948 122.045 529.068 116.261 522.39 110.91C516.541 107.193 510.378 105.641 503.683 104.128C502.109 103.756 502.109 103.756 500.503 103.377C469.059 94.4515 469.059 94.4515 440.86 104.278Z" fill="#223874"/>
</svg>
