<?xml version="1.0" encoding="UTF-8"?>
<svg version="1.1" xmlns="http://www.w3.org/2000/svg" width="1499" height="482">
<path d="M0 0 C3.04322515 2.96519374 3.8453989 5.93639272 3.9609375 10.109375 C3.43727938 30.00838353 -20.07196492 48.58616402 -33.4765625 61.484375 C-35.47516149 63.31838348 -37.497009 65.10241248 -39.56640625 66.85546875 C-41.8546019 68.80675216 -44.0675531 70.83255187 -46.2890625 72.859375 C-50.5601977 76.71508063 -54.96686696 80.35988565 -59.4375 83.98046875 C-64.9116606 88.49067048 -70.23082556 93.1809579 -75.58007812 97.83789062 C-78.55511554 100.42075009 -81.5461205 102.98480546 -84.5390625 105.546875 C-85.11027832 106.03631592 -85.68149414 106.52575684 -86.27001953 107.0300293 C-89.20225959 109.54142711 -92.13817726 112.04841082 -95.078125 114.55078125 C-101.49505322 120.0199223 -107.82048077 125.55876512 -114.03515625 131.2578125 C-116.13811083 133.17570707 -118.26325406 135.05813545 -120.4140625 136.921875 C-132.47198215 147.4294907 -144.24262113 158.20060544 -154.23046875 170.734375 C-156.55460681 173.57992838 -158.98648894 176.28327826 -161.4765625 178.984375 C-165.598758 183.46336022 -169.46496131 188.09158903 -173.28125 192.83203125 C-175.32997885 195.30727483 -177.46488946 197.64318894 -179.6640625 199.984375 C-185.88919916 206.82554081 -191.16454246 214.40092383 -196.58447266 221.88085938 C-199.81673202 226.32844826 -203.08615576 230.74859985 -206.3515625 235.171875 C-207.53662298 236.77982659 -208.72153446 238.387888 -209.90625 239.99609375 C-210.76302083 241.15885417 -211.61979167 242.32161458 -212.4765625 243.484375 C-210.34539291 243.484375 -208.02841597 240.62522101 -206.5390625 239.359375 C-196.06611184 230.73140011 -185.40388296 224.20622595 -171.4765625 224.484375 C-164.42281002 225.53851289 -159.78146211 228.89268474 -155.4765625 234.484375 C-149.84439133 243.87132696 -151.00007775 255.42534212 -153.3359375 265.703125 C-157.38333496 279.12052479 -164.33692825 289.64582278 -176.4765625 296.88671875 C-187.33320872 302.66844831 -200.06423199 306.484375 -212.4765625 306.484375 C-209.43981209 317.20231764 -205.53958161 324.83816098 -196.4765625 331.484375 C-187.54270554 334.46232732 -174.61417542 333.69539846 -166.07421875 329.93359375 C-153.05354419 322.66942794 -140.95872386 312.97059395 -131.4765625 301.484375 C-130.38725102 300.22774306 -129.29445134 298.97413095 -128.19921875 297.72265625 C-127.60874756 297.0474292 -127.01827637 296.37220215 -126.40991211 295.67651367 C-125.21712871 294.31303358 -124.02394094 292.94990713 -122.83032227 291.5871582 C-122.28303467 290.95769287 -121.73574707 290.32822754 -121.171875 289.6796875 C-120.67703613 289.11266113 -120.18219727 288.54563477 -119.67236328 287.96142578 C-116.87824317 284.51013409 -117.39981693 281.12269711 -117.484375 276.8984375 C-117.50477347 275.32162757 -117.52410044 273.7448035 -117.54248047 272.16796875 C-117.55293396 271.34151855 -117.56338745 270.51506836 -117.57415771 269.66357422 C-117.7272537 255.39461921 -117.80088699 241.44474578 -114.4765625 227.484375 C-114.27788574 226.64100586 -114.07920898 225.79763672 -113.87451172 224.92871094 C-103.73074511 183.36586198 -77.93562088 147.66749726 -44.4765625 121.484375 C-43.72761719 120.85660156 -42.97867187 120.22882813 -42.20703125 119.58203125 C3.2417094 81.72098495 63.55781503 63.28093725 121.5234375 57.484375 C122.46509766 57.38866211 123.40675781 57.29294922 124.37695312 57.19433594 C134.70360098 56.26911604 145.03830088 56.24189043 155.3984375 56.234375 C156.84891983 56.23286438 156.84891983 56.23286438 158.32870483 56.23132324 C175.57068527 56.24339883 192.42622792 57.15316794 209.5234375 59.484375 C210.52955078 59.61827637 211.53566406 59.75217773 212.57226562 59.89013672 C263.13651227 66.90350314 314.49488965 86.55043706 354.5234375 118.484375 C355.47992187 119.22945313 356.43640625 119.97453125 357.421875 120.7421875 C394.29090088 150.04279164 424.46683035 191.56915919 430.30557251 239.31892395 C430.64946882 242.7370529 430.72449252 246.15372372 430.76171875 249.5859375 C430.77146729 250.33667038 430.78121582 251.08740326 430.79125977 251.86088562 C430.9620675 268.42037527 430.83906444 284.37015704 426.5234375 300.484375 C426.32556641 301.22896973 426.12769531 301.97356445 425.92382812 302.74072266 C420.67909158 321.86534046 412.15795749 340.41150108 400.5234375 356.484375 C399.78609375 357.50789063 399.04875 358.53140625 398.2890625 359.5859375 C392.17557576 367.87936825 385.2917631 375.38399054 378.1484375 382.79638672 C376.72201281 384.27810252 375.3091001 385.77280144 373.8984375 387.26953125 C367.32537116 394.09124977 360.09888204 399.8346293 352.5234375 405.484375 C351.89083008 405.96132813 351.25822266 406.43828125 350.60644531 406.9296875 C317.15188344 431.99129219 278.08896235 448.20309901 237.5234375 457.484375 C235.95795166 457.84571533 235.95795166 457.84571533 234.36083984 458.21435547 C208.35897395 464.10288113 182.32544089 466.05905634 155.7109375 465.921875 C153.81695221 465.91731293 153.81695221 465.91731293 151.88470459 465.91265869 C132.77408192 465.84476748 114.31622582 465.13155982 95.5234375 461.484375 C94.34378418 461.26475098 93.16413086 461.04512695 91.94873047 460.81884766 C63.46099085 455.43092421 35.60433979 447.28243858 9.5234375 434.484375 C8.27477664 433.88533942 7.02607667 433.28638535 5.77734375 432.6875 C-16.23414989 422.02224899 -36.1618368 408.69978432 -54.4765625 392.484375 C-55.46527344 391.618125 -56.45398438 390.751875 -57.47265625 389.859375 C-62.89724975 385.03097156 -67.86499579 380.08936311 -72.4765625 374.484375 C-73.13785156 373.7109375 -73.79914063 372.9375 -74.48046875 372.140625 C-91.12351544 352.37142464 -103.26629681 331.00308654 -111.4765625 306.484375 C-112.1365625 306.484375 -112.7965625 306.484375 -113.4765625 306.484375 C-114.84147483 308.02772078 -116.13609373 309.63340979 -117.3984375 311.26171875 C-122.4591044 317.57946178 -127.98485171 323.3493067 -133.7265625 329.046875 C-134.23234833 329.55050568 -134.73813416 330.05413635 -135.25924683 330.57302856 C-142.56902628 337.83291979 -149.82631307 344.8205212 -158.4765625 350.484375 C-160.12398437 351.58072266 -160.12398437 351.58072266 -161.8046875 352.69921875 C-177.83500657 362.86826161 -194.97641433 364.26925141 -213.34765625 360.5234375 C-224.72651943 357.88767044 -234.43987694 351.54534143 -240.7890625 341.734375 C-247.07863339 330.26918991 -246.83288251 319.21951601 -246.4765625 306.484375 C-254.41053341 317.02897236 -261.67361351 327.73951916 -268.16796875 339.23828125 C-268.64298828 340.07391602 -269.11800781 340.90955078 -269.60742188 341.77050781 C-270.53313679 343.40408523 -271.45041317 345.04248618 -272.35742188 346.68652344 C-276.43445212 353.89575799 -281.27834143 361.75163464 -289.4765625 364.484375 C-294.48745839 365.01183773 -297.46200277 364.58132108 -301.4765625 361.484375 C-304.60406217 356.79312549 -303.93522826 351.9817168 -303.4765625 346.484375 C-302.7068673 343.05411488 -301.70081235 339.77819006 -300.4765625 336.484375 C-301.39695312 337.2578125 -302.31734375 338.03125 -303.265625 338.828125 C-317.02097742 350.21672881 -330.79482486 360.37101636 -349.4296875 359.82421875 C-356.83382672 358.99837245 -361.06213591 355.3763874 -365.93359375 349.97265625 C-370.18173008 343.12186425 -370.90337362 336.33141431 -370.6640625 328.421875 C-370.65052734 327.55626953 -370.63699219 326.69066406 -370.62304688 325.79882812 C-370.5881558 323.69373326 -370.53436915 321.58896526 -370.4765625 319.484375 C-370.96310303 319.99186279 -371.44964355 320.49935059 -371.95092773 321.0222168 C-408.42130024 358.84255273 -408.42130024 358.84255273 -433.5390625 359.796875 C-440.5346197 359.59112332 -445.36580288 358.02022963 -450.2890625 352.921875 C-456.39542839 346.1773141 -457.01351119 336.59799633 -456.9140625 327.921875 C-456.90503906 326.96224854 -456.89601563 326.00262207 -456.88671875 325.01391602 C-456.456867 307.06611312 -449.87724592 290.52217271 -442.625 274.28515625 C-442.3451123 273.65633545 -442.06522461 273.02751465 -441.77685547 272.37963867 C-441.03695072 270.74295491 -440.27339671 269.11701782 -439.5078125 267.4921875 C-438.30398371 263.9810202 -438.22770807 261.17275322 -438.4765625 257.484375 C-438.8065625 256.824375 -439.1365625 256.164375 -439.4765625 255.484375 C-446.48274447 257.44287544 -450.34450245 261.51833095 -455.4765625 266.484375 C-455.96495605 266.95230469 -456.45334961 267.42023438 -456.95654297 267.90234375 C-464.02055089 274.69107149 -470.44050499 281.75247276 -476.4765625 289.484375 C-477.5466385 290.83742665 -478.61696999 292.19027628 -479.6875 293.54296875 C-495.28046067 313.33117836 -509.7280937 333.68071576 -521.85546875 355.796875 C-523.26377616 358.13161114 -524.33464293 359.82576036 -526.4765625 361.484375 C-530.98442152 362.5189656 -533.35461107 362.8727428 -537.7265625 361.359375 C-542.49793908 358.10616369 -544.98730057 354.73847904 -546.15625 349 C-550.75463862 312.88582596 -533.19586175 272.14301664 -512.31640625 243.5234375 C-500.11956401 227.87199832 -500.11956401 227.87199832 -490.6640625 225.546875 C-485.87209802 225.11124187 -482.27173713 226.60527701 -478.4765625 229.484375 C-474.96509914 234.20290388 -474.75823386 238.83412656 -475.4765625 244.484375 C-477.68585762 252.38098738 -481.37397274 259.17744357 -485.6640625 266.109375 C-489.87304843 273.06816821 -493.98357977 280.04563282 -497.7890625 287.234375 C-498.16764404 287.94287598 -498.54622559 288.65137695 -498.9362793 289.38134766 C-500.83818685 292.75128406 -500.83818685 292.75128406 -501.4765625 296.484375 C-492.19060755 285.15006699 -492.19060755 285.15006699 -483.1640625 273.609375 C-449.5360145 229.62171867 -449.5360145 229.62171867 -428.4765625 225.484375 C-421.02750538 224.8422149 -414.19447522 224.29651209 -408.0234375 229.00390625 C-401.83311015 234.92848722 -400.41573212 241.88087271 -400.1640625 250.109375 C-400.54259502 264.0036784 -405.44803076 276.84823003 -410.0390625 289.796875 C-410.92934256 292.31945629 -411.81699903 294.84286593 -412.69871521 297.36845398 C-413.24219348 298.92417759 -413.7905298 300.47821697 -414.34486389 302.03010559 C-416.9013768 309.32820847 -419.10081122 316.68126603 -418.4765625 324.484375 C-417.4865625 325.969375 -417.4865625 325.969375 -416.4765625 327.484375 C-403.05742661 327.484375 -393.50679266 316.41564374 -384.4765625 307.484375 C-377.33707594 300.17285262 -370.98897503 292.28709057 -364.78613281 284.18359375 C-363.56115014 282.59413077 -362.31263908 281.02287892 -361.0625 279.453125 C-357.04527128 274.3176986 -353.66683032 269.17424899 -350.7265625 263.359375 C-343.87018826 249.85455562 -333.46091203 231.73511819 -318.70703125 226.046875 C-313.48478452 224.72988108 -309.80200395 225.72347343 -305.1015625 228.421875 C-301.31278979 232.05494472 -300.627343 236.39373813 -300.4765625 241.484375 C-301.01431958 251.76321746 -307.14848837 259.99198897 -312.40234375 268.4609375 C-321.73123489 283.54850938 -331.85822027 303.22018765 -331.7265625 321.421875 C-331.73171875 322.15277344 -331.736875 322.88367188 -331.7421875 323.63671875 C-331.6294686 325.73099523 -331.6294686 325.73099523 -329.4765625 327.484375 C-320.78583609 327.76027108 -315.9807734 323.8888855 -309.4765625 318.484375 C-308.66703125 317.81535156 -307.8575 317.14632813 -307.0234375 316.45703125 C-302.76723129 312.80161606 -298.95771468 308.94338275 -295.33984375 304.66015625 C-293.20075929 302.16231549 -290.96574664 299.7678203 -288.7265625 297.359375 C-277.31789951 284.71548835 -268.81773225 271.59411983 -260.45124817 256.74032593 C-250.36055756 238.84388817 -239.69251763 221.34221648 -228.31005859 204.23974609 C-226.45866103 201.45747273 -224.61729432 198.6687599 -222.77734375 195.87890625 C-211.91600092 179.44697132 -200.42871117 163.67754475 -188.43994141 148.05029297 C-186.63537563 145.6919261 -184.84067148 143.32654506 -183.05078125 140.95703125 C-168.64218462 121.9117356 -153.27717706 103.61117942 -137.00439453 86.12988281 C-135.28931053 84.28270062 -133.58447612 82.4262814 -131.87890625 80.5703125 C-122.60495998 70.52482526 -112.92387028 61.28451752 -102.578125 52.34375 C-100.47020949 50.47875412 -98.41452736 48.56338268 -96.35961914 46.64038086 C-89.92324357 40.63955734 -83.18218337 35.16071681 -76.19824219 29.81201172 C-74.55167348 28.54229524 -72.92221528 27.25375912 -71.296875 25.95703125 C-20.58358508 -14.06979234 -20.58358508 -14.06979234 0 0 Z M-218.6640625 274.421875 C-219.6246905 275.40263446 -220.58627511 276.38245788 -221.54882812 277.36132812 C-223.86759263 279.72670096 -226.176401 282.10093234 -228.4765625 284.484375 C-221.96500194 286.48875808 -214.56928167 283.03004888 -208.4765625 280.484375 C-200.28661465 275.97876302 -194.46073534 268.48794128 -191.0390625 259.859375 C-190.760625 258.68375 -190.760625 258.68375 -190.4765625 257.484375 C-191.50800304 256.24347926 -191.50800304 256.24347926 -193.71948242 256.24584961 C-203.68522091 257.10802321 -212.17314629 267.69174714 -218.6640625 274.421875 Z M-504.4765625 299.484375 C-503.4765625 301.484375 -503.4765625 301.484375 -503.4765625 301.484375 Z " fill="#233975" transform="translate(1068.4765625,16.515625)"/>
<path d="M0 0 C3.33730742 3.08700936 5.30867365 5.62017287 5.828125 10.21484375 C5.80234375 11.21644531 5.7765625 12.21804688 5.75 13.25 C5.73453125 14.24902344 5.7190625 15.24804688 5.703125 16.27734375 C5.49793379 19.34337394 5.05811124 22.29239807 4.5 25.3125 C5.3971875 25.47105469 6.294375 25.62960938 7.21875 25.79296875 C30.0655309 30.06493915 55.8345382 37.74811019 70.54296875 56.984375 C80.64530133 72.23480456 83.55773757 88.79056026 80.3125 106.75 C73.17387686 139.15342763 50.84740252 164.98595871 28.5 188.3125 C27.22382812 189.65248047 27.22382812 189.65248047 25.921875 191.01953125 C21.31139346 195.75439628 16.40318523 199.94189698 11.2421875 204.06640625 C8.62722075 206.20829497 6.15861807 208.44497347 3.6875 210.75 C-1.10380072 215.10572793 -6.24235921 218.81750166 -11.5390625 222.515625 C-15.21244625 225.08643394 -18.8033447 227.75931898 -22.39355469 230.44458008 C-39.31930328 243.07739304 -57.12711329 253.91165064 -75.5 264.3125 C-76.75876953 265.03155518 -76.75876953 265.03155518 -78.04296875 265.76513672 C-108.8571061 283.21433318 -151.38532936 304.01772708 -187.3671875 303.28515625 C-198.67216342 302.69637305 -198.67216342 302.69637305 -208.59423828 307.109375 C-212.54147931 312.20968086 -214.84904928 318.0378212 -217.16503906 324.01220703 C-219.01141086 328.5768109 -221.25201203 332.90714687 -223.48071289 337.29443359 C-230.17152969 350.59567403 -235.67195746 364.23942128 -240.5 378.3125 C-240.83257812 379.27591309 -241.16515625 380.23932617 -241.5078125 381.23193359 C-246.03620767 394.4895236 -249.76178147 407.5231474 -250.9765625 421.53125 C-251.09487427 422.87678955 -251.09487427 422.87678955 -251.21557617 424.24951172 C-251.35964248 425.99447329 -251.48586583 427.74103407 -251.59106445 429.48876953 C-252.07260639 435.75828149 -253.89365266 439.51998499 -258.25 444.1875 C-261.65062289 445.88781145 -264.82842913 445.93034655 -268.5 445.3125 C-275.06502323 442.2230773 -278.09894947 436.74507379 -280.75 430.25 C-291.91104348 386.53591305 -266.12040804 337.6867955 -245.12109375 301.1015625 C-244.77796143 300.49932861 -244.4348291 299.89709473 -244.08129883 299.27661133 C-243.21104602 297.77360896 -242.31395807 296.2862253 -241.4140625 294.80078125 C-240.23568129 292.33167263 -240.23568129 292.33167263 -241.17578125 289.796875 C-241.61277344 288.97703125 -242.04976563 288.1571875 -242.5 287.3125 C-242.91378906 286.47589844 -243.32757813 285.63929688 -243.75390625 284.77734375 C-244.6279161 283.08933071 -245.50292005 281.40183202 -246.37890625 279.71484375 C-248.83714564 274.44718791 -249.6639773 268.69587443 -247.74609375 263.12109375 C-245.99872743 259.40023134 -244.38446887 256.03893061 -240.5 254.3125 C-233.25334624 253.40666828 -227.24054269 255.79603073 -220.5 258.3125 C-219.78650391 256.99765625 -219.78650391 256.99765625 -219.05859375 255.65625 C-212.04689056 242.89316201 -204.30746234 230.60014844 -196.5 218.3125 C-196.01805176 217.55356445 -195.53610352 216.79462891 -195.03955078 216.01269531 C-182.37016029 196.12311454 -169.2801712 176.44981192 -155.5 157.3125 C-154.99194824 156.60399902 -154.48389648 155.89549805 -153.96044922 155.16552734 C-150.71697821 150.64260418 -147.45749245 146.13167072 -144.18408203 141.63037109 C-143.05016115 140.06970933 -141.91836404 138.50750256 -140.78857422 136.94384766 C-132.9484747 126.09870858 -124.79582243 115.6232928 -116.20703125 105.36230469 C-113.42033652 102.01603911 -110.67862606 98.63361624 -107.9375 95.25 C-106.86723511 93.92964891 -105.7969227 92.60933633 -104.7265625 91.2890625 C-104.19708008 90.63583008 -103.66759766 89.98259766 -103.12207031 89.30957031 C-101.46822062 87.27337367 -99.80903801 85.24163122 -98.1484375 83.2109375 C-91.4548229 75.01739966 -84.8942584 66.74195125 -78.5 58.3125 C-79.49 58.580625 -80.48 58.84875 -81.5 59.125 C-86.23564096 60.30891024 -91.01823586 61.18279487 -95.81697083 62.06938171 C-150.60159465 72.20973107 -206.17776797 86.95955688 -256.5 111.3125 C-257.32983398 111.70501953 -258.15966797 112.09753906 -259.01464844 112.50195312 C-270.47677773 117.92979821 -281.25386373 123.82162727 -291.5 131.3125 C-292.49515625 132.02921875 -293.4903125 132.7459375 -294.515625 133.484375 C-304.97178859 141.48713708 -316.0373512 153.96108051 -318.5 167.3125 C-318.66758007 169.64213775 -318.76549947 171.97731562 -318.8125 174.3125 C-318.86857422 176.1378125 -318.86857422 176.1378125 -318.92578125 178 C-318.74811018 181.33139026 -318.74811018 181.33139026 -316.87890625 183.73046875 C-313.77352439 185.79562417 -311.82887829 185.75018936 -308.125 185.625 C-307.02414062 185.60050781 -305.92328125 185.57601562 -304.7890625 185.55078125 C-301.63595112 185.32234919 -298.61436043 184.83993201 -295.5 184.3125 C-293.79399214 184.20365974 -292.08442375 184.13839674 -290.375 184.125 C-289.54742187 184.11082031 -288.71984375 184.09664062 -287.8671875 184.08203125 C-285.21843252 184.33991334 -283.69943924 184.81631494 -281.5 186.3125 C-278.61050738 190.6007279 -278.90041649 195.34226826 -279.5 200.3125 C-282.15558362 206.58933401 -287.538189 209.52151369 -293.5 212.3125 C-307.67229037 217.49160894 -324.01276617 217.9671131 -338.0546875 212.27734375 C-349.16652509 206.60607716 -356.82440185 197.76321592 -361.1328125 186.1328125 C-362.7425897 181.10966332 -363.03834525 176.37441625 -363 171.125 C-362.99427979 170.20662354 -362.98855957 169.28824707 -362.98266602 168.34204102 C-362.52327395 150.6825149 -352.92660443 136.20508355 -341.5 123.3125 C-340.92121094 122.64992188 -340.34242188 121.98734375 -339.74609375 121.3046875 C-328.14865182 108.9029487 -313.09882614 99.72049657 -298.5 91.3125 C-297.695625 90.83989746 -296.89125 90.36729492 -296.0625 89.88037109 C-228.59731942 50.41587581 -137.19476447 25.71715077 -56.72314453 24.11425781 C-51.23233832 23.98272664 -47.24015352 23.8737177 -42.9375 20.25 C-41.75325218 18.97205345 -40.6064026 17.65840622 -39.5 16.3125 C-29.99086726 5.87151461 -14.81999779 -7.14535608 0 0 Z M-23 58.4375 C-23.76441406 59.24703125 -24.52882813 60.0565625 -25.31640625 60.890625 C-27.78148634 63.6247031 -30.23265827 66.36545595 -32.62890625 69.16015625 C-34.83079829 71.69302162 -37.10195826 74.15582522 -39.375 76.625 C-43.49906676 81.14153837 -47.37936865 85.80383016 -51.21875 90.5625 C-53.56718968 93.39349578 -56.00909902 96.10633598 -58.5 98.8125 C-62.91511354 103.62036903 -67.06654482 108.58659325 -71.16308594 113.66650391 C-73.27761568 116.26989315 -75.42138225 118.84897559 -77.56054688 121.43212891 C-84.33961479 129.62502288 -90.9890693 137.90518172 -97.5 146.3125 C-98.27214844 147.30894531 -99.04429687 148.30539063 -99.83984375 149.33203125 C-101.89304698 151.99333794 -103.93988396 154.65924211 -105.98193359 157.32910156 C-107.09829761 158.787664 -108.21600755 160.24519655 -109.33447266 161.70214844 C-116.70910878 171.31026639 -124.05548148 180.92149361 -131.03125 190.82421875 C-132.8209426 193.36473418 -134.63733311 195.88392499 -136.46875 198.39453125 C-145.07298847 210.1939109 -153.34087354 222.20182385 -161.5 234.3125 C-162.21784668 235.3756543 -162.93569336 236.43880859 -163.67529297 237.53417969 C-165.87164905 240.79043047 -168.06193476 244.05067352 -170.25 247.3125 C-170.92973877 248.32135254 -171.60947754 249.33020508 -172.30981445 250.36962891 C-175.34176784 254.90736657 -178.24687106 259.33543906 -180.5 264.3125 C-147.53844676 260.84042627 -111.66564879 242.36128441 -82.55566406 227.36914062 C-81.1407235 226.64184101 -79.72324694 225.91946088 -78.30371094 225.20117188 C-53.76011716 212.77696295 -30.75460108 197.77891498 -9.5 180.3125 C-8.91573242 179.83264648 -8.33146484 179.35279297 -7.72949219 178.85839844 C7.90387151 165.90552466 22.54453534 151.76421394 34.5 135.3125 C35.47646484 133.99378906 35.47646484 133.99378906 36.47265625 132.6484375 C47.36920095 117.56091407 57.59506846 99.57624639 55.5 80.3125 C53.95585519 73.30684971 50.7140742 68.46585294 45.1328125 63.98828125 C40.24553534 60.87753659 35.09486715 59.57822813 29.5 58.3125 C28.18443115 58.00119141 28.18443115 58.00119141 26.84228516 57.68359375 C0.56561365 50.21420876 0.56561365 50.21420876 -23 58.4375 Z " fill="#223874" transform="translate(362.5,1.6875)"/>
<path d="M0 0 C-0.1875 2.3125 -0.1875 2.3125 -1 5 C-4.3860258 7.35995737 -7.90247691 8.80463418 -11.75 10.25 C-31.98877453 18.56900548 -40.29749623 38.05414261 -49.06713867 56.67114258 C-54.07982028 67.27342589 -59.31899398 77.76044861 -64.5625 88.25 C-65.00339966 89.1341156 -65.44429932 90.0182312 -65.89855957 90.92913818 C-70.93130185 101.01824515 -76.05145989 111.05135867 -81.32920837 121.01454163 C-85.72885491 129.33873305 -89.93413396 137.75680057 -94.125 146.1875 C-94.89824427 147.73902861 -95.67168136 149.29046113 -96.4453125 150.84179688 C-98.29907972 154.56010403 -100.15030271 158.27966667 -102 162 C-97.18418354 160.40499759 -92.43188417 158.68716214 -87.68359375 156.90234375 C-77.24040034 153.39087697 -66.31915305 153.90891511 -56.23828125 158.25390625 C-44.24025065 164.72329066 -32.48338898 174.47442439 -28.41796875 187.92578125 C-25.5411962 202.20210109 -32.05678508 215.02800548 -39 227.0625 C-39.66597386 228.23755383 -40.33108176 229.41309885 -40.99536133 230.58911133 C-45.57275627 238.65912103 -50.28734141 246.65083236 -55.14257812 254.55688477 C-63.02441802 267.33320456 -63.02441802 267.33320456 -64 282 C-62.04926853 285.08341426 -60.71483215 286.60803836 -57.0859375 287.4375 C-44.29661608 288.18160597 -33.35936018 280.84978596 -24 273 C-24.41835894 270.0714874 -24.8577907 268.2047814 -26.5625 265.75 C-28.64338999 261.76916697 -28.9011182 258.39569854 -28 254 C-25.33762707 248.80334081 -21.37240631 244.30245985 -16 242 C-7.04837786 240.83094487 0.61802272 241.57207553 8 247 C11.86331609 250.60576169 15.4834302 254.75041556 16.3359375 260.11328125 C16.45522713 266.82928728 14.86928564 270.70701156 10.4921875 275.73046875 C6.05963548 280.07024643 2.1155281 280.97226518 -4 281 C5.42819429 287.84006252 15.3865979 289.24559732 26.8125 289.5 C27.60052002 289.5306958 28.38854004 289.5613916 29.20043945 289.59301758 C35.28112832 289.594938 39.26887684 287.78628595 44 284 C49.38876123 278.19671868 49.59984385 272.58049497 49.390625 264.91796875 C48.08427625 251.81529078 36.39024696 242.24539466 27.4375 233.5625 C16.1144997 222.32066816 5.84144313 208.86230886 5.6875 192.375 C5.6875 183.48901632 7.27049664 176.72761668 13.25 169.875 C29.61677788 154.93010485 51.9773584 152.96872395 73.05053711 153.77929688 C89.53780072 155.01300984 103.37713327 160.3815434 114.45703125 172.77734375 C118.59733529 178.74147793 119.5033797 183.84045982 119.4375 190.9375 C119.45748047 191.69740234 119.47746094 192.45730469 119.49804688 193.24023438 C119.49270947 199.49033017 117.89849106 204.85846465 113.58789062 209.53051758 C108.26859656 214.21895426 103.62535365 215.46511933 96.6953125 215.3203125 C90.25228972 214.55461994 83.4249147 211.8041931 79 207 C75.22466407 200.47114271 72.34863362 194.68612334 73 187 C75.81070568 181.69088927 79.24314132 178.28225985 84.6875 175.75 C89.1561178 174.73823748 93.43933261 174.83776282 98 175 C95.94972365 170.80625292 94.27353606 168.69814219 89.8125 167.125 C77.33764856 164.02014809 63.76055468 164.96744886 52.5625 171.375 C49.39876341 173.52250605 47.39413392 175.34039846 46 179 C45.13353497 186.65377447 47.84931217 193.03560635 52.51464844 198.97021484 C52.96356445 199.51629395 53.41248047 200.06237305 53.875 200.625 C54.34969727 201.21619629 54.82439453 201.80739258 55.31347656 202.41650391 C60.44936635 208.71903619 66.01924772 214.61516115 71.60498047 220.51660156 C74.50096775 223.59605882 77.27553793 226.76881431 80 230 C80.67804688 230.78761719 81.35609375 231.57523438 82.0546875 232.38671875 C91.05338412 243.14889621 94.09300497 252.96774495 93 267 C91.00089404 277.17112695 84.68396597 285.0141084 76.25 290.875 C59.00506209 300.65985411 31.30864466 301.02606735 12.25 296.375 C2.74226758 293.61688355 -5.76972812 289.62165208 -13.18359375 283.00390625 C-14.98816367 281.79962564 -14.98816367 281.79962564 -17.28515625 282.10546875 C-20.76365359 283.25162111 -23.82935565 284.95120992 -27 286.75 C-43.57091374 295.84272647 -60.36646337 301.2503669 -79.12109375 295.96875 C-89.8482996 292.35905251 -98.67679202 286.55674336 -104.5625 276.6875 C-110.40488082 263.78218526 -107.51386238 247.92545162 -103 235 C-99.05154564 225.31214779 -93.47731785 217.15274006 -87.31591797 208.80615234 C-74.17987166 191.58751063 -74.17987166 191.58751063 -69.49609375 171.1796875 C-69.82511306 168.62134391 -69.82511306 168.62134391 -73 167 C-81.85358532 164.80012748 -89.73342203 169.58706388 -97.14794922 173.86669922 C-101.45820127 176.50421438 -105.31017593 179.55991021 -109 183 C-109.48979843 183.40563675 -109.97959686 183.8112735 -110.48423767 184.22920227 C-116.78028048 189.84517132 -120.06779318 197.13959362 -123.75 204.5703125 C-124.48645034 206.03104182 -125.22410973 207.49116211 -125.96289062 208.95071411 C-127.92381712 212.83304021 -129.8679029 216.72357066 -131.80883789 220.61592102 C-133.77360418 224.548348 -135.75480225 228.47247302 -137.734375 232.39746094 C-142.10823215 241.07773611 -146.45533714 249.77123802 -150.79724121 258.4675293 C-152.43524029 261.74618734 -154.07626985 265.02332496 -155.71722412 268.30050468 C-157.30911424 271.48068762 -158.89911464 274.66181231 -160.48852539 277.84323502 C-161.24069611 279.34824047 -161.99345441 280.85295242 -162.74682617 282.35735703 C-163.78367292 284.428522 -164.81796408 286.50094296 -165.8515625 288.57373047 C-166.43760254 289.74660614 -167.02364258 290.91948181 -167.62744141 292.12789917 C-169.05948452 294.9722234 -169.05948452 294.9722234 -170 298 C-188.81 298 -207.62 298 -227 298 C-227 294.75855421 -226.52125325 293.77614143 -224.97265625 291.01953125 C-224.51890625 290.20162109 -224.06515625 289.38371094 -223.59765625 288.54101562 C-223.09105469 287.64060547 -222.58445312 286.74019531 -222.0625 285.8125 C-220.95781209 283.82002023 -219.85506479 281.82646372 -218.75390625 279.83203125 C-218.1520752 278.74229004 -217.55024414 277.65254883 -216.93017578 276.52978516 C-213.7545777 270.74558005 -210.68173318 264.9061342 -207.59664917 259.07333374 C-201.99694464 248.48648733 -196.35316478 237.92833315 -190.58886719 227.42993164 C-185.85710653 218.788805 -181.26089417 210.07712023 -176.65576172 201.36813354 C-171.22691939 191.10856984 -165.66399133 180.93290373 -160.01437378 170.79360962 C-154.5710278 161.00817263 -149.40075354 151.0990847 -144.3125 141.125 C-138.50914737 129.75010189 -132.47507927 118.56008152 -126.12109375 107.48046875 C-118.69373005 94.51246516 -111.70541938 81.28830433 -104.75 68.0625 C-104.34773193 67.2984082 -103.94546387 66.53431641 -103.53100586 65.74707031 C-101.55484474 61.98610668 -99.59672293 58.21710458 -97.6640625 54.43359375 C-84.53558761 28.88388313 -66.27752395 13.48738198 -39.37890625 3.6796875 C-36.26940184 2.69079917 -33.16026023 1.81032314 -30 1 C-29.19949219 0.77570313 -28.39898438 0.55140625 -27.57421875 0.3203125 C-19.40895906 -1.68326383 -8.02892081 -2.67630694 0 0 Z " fill="#FCFCFC" transform="translate(1216,84)"/>
<path d="M0 0 C5.50856624 5.86046482 7.47589271 12.64181192 7.24609375 20.6171875 C6.20059887 30.74023313 1.52019283 40.093118 -6 46.9375 C-12.66311395 52.23798839 -17.38829349 53.33843317 -25.87890625 53.3984375 C-29.41143051 52.94747696 -31.29062735 52.31735719 -34 50 C-35.71423663 43.00463686 -33.76925472 36.56159175 -30.90625 30.19140625 C-29.70064576 27.27613048 -29.39492254 25.101022 -30 22 C-34.01864943 17.49911264 -40.95768414 16.8048353 -46.69189453 16.36572266 C-82.07932315 14.37596688 -118.62198488 26.3972448 -150 42 C-150.97243652 42.47808105 -151.94487305 42.95616211 -152.94677734 43.44873047 C-172.11091102 52.93056335 -190.2198222 63.7095052 -207 77 C-207.89460937 77.70253906 -208.78921875 78.40507812 -209.7109375 79.12890625 C-222.02559496 88.99121788 -233.78442697 99.84062229 -244.04296875 111.8359375 C-246.29596385 114.3272734 -248.69955448 116.61384597 -251.125 118.9375 C-258.28626659 125.92434465 -264.10053887 133.9494377 -270 142 C-270.45262207 142.61278809 -270.90524414 143.22557617 -271.37158203 143.85693359 C-280.78645834 156.63248193 -289.61845828 169.85368962 -297.00805664 183.91162109 C-298.89327072 187.41292647 -300.44176534 190.09355706 -304 192 C-308.56815288 192.92193631 -312.19857845 192.38586964 -316.375 190.375 C-320.2169816 186.89892141 -322.0303413 183.03010453 -323 178 C-323.52606134 167.4665393 -322.67217566 157.39137732 -321 147 C-324.0281751 149.33133616 -326.65869126 151.59459748 -329.0625 154.5625 C-346.5167971 174.83200631 -371.45555457 192.05505207 -398.70507812 194.21435547 C-416.07664634 195.16205659 -434.37643157 194.24946441 -448.015625 182.22265625 C-455.83831666 174.18631965 -457.61450032 164.88086492 -457.46850586 154.03540039 C-456.3741726 126.41991492 -441.97051115 103.01388703 -424 83 C-423.41992188 82.33613281 -422.83984375 81.67226563 -422.2421875 80.98828125 C-408.9568577 66.66816446 -389.45285071 56.84677828 -369.98828125 55.72265625 C-359.43446045 55.35021272 -349.24288808 55.82415631 -340.875 62.875 C-337.32672174 66.18932584 -335.44757353 69.24169804 -334.6640625 74.0703125 C-334.32562553 91.87209735 -348.55278241 107.62908762 -360 120 C-377.80057405 138.02661308 -398.04042512 146.53645754 -423 149 C-423.08139142 151.39652528 -423.14067009 153.79025436 -423.1875 156.1875 C-423.21263672 156.86103516 -423.23777344 157.53457031 -423.26367188 158.22851562 C-423.32925071 162.70973608 -422.75046572 165.44404075 -420 169 C-412.21658168 174.58809521 -402.17198536 173.69678339 -393 173 C-369.06714437 168.7781367 -346.97700721 152.26567737 -331.7265625 133.97265625 C-329.66528665 131.61757864 -327.44016099 129.48495789 -325.1875 127.3125 C-314.39179005 116.56586146 -307.1449837 104.47487833 -300.00976562 91.15087891 C-292.74515163 77.66418934 -283.6909835 62.3504849 -269 56 C-263.98402389 55.54400217 -260.99328398 55.87012877 -257 59 C-253.05738306 63.38068549 -251.62720942 66.68477729 -251.72143555 72.64746094 C-252.74667786 81.30586137 -257.48511545 88.99352587 -262 96.25 C-268.87318751 107.56300438 -275.00633628 119.20227304 -281 131 C-280.62125732 130.49428467 -280.24251465 129.98856934 -279.85229492 129.4675293 C-263.36350165 107.46440028 -246.00966953 86.91567081 -225 69 C-224.03578125 68.154375 -223.0715625 67.30875 -222.078125 66.4375 C-199.55925055 47.02896732 -174.79525049 30.69349712 -149 16 C-148.2795752 15.58411621 -147.55915039 15.16823242 -146.81689453 14.73974609 C-126.01528326 2.80669007 -103.29201844 -5.49258863 -80 -11 C-79.20368164 -11.19062012 -78.40736328 -11.38124023 -77.58691406 -11.57763672 C-53.04053952 -17.20217733 -20.18003343 -17.23096801 0 0 Z M-385 88 C-385.48710449 88.43940918 -385.97420898 88.87881836 -386.47607422 89.33154297 C-398.8505527 100.59299415 -406.98345441 113.92139705 -414 129 C-407.71410775 127.88159506 -402.41701789 126.10889514 -396.8125 123.0625 C-395.72001953 122.4746875 -395.72001953 122.4746875 -394.60546875 121.875 C-380.78621174 114.19495995 -368.89827986 103.65695175 -359.625 90.875 C-359.20766602 90.30096436 -358.79033203 89.72692871 -358.36035156 89.13549805 C-353.56687894 82.42522133 -353.56687894 82.42522133 -352.25 74.625 C-352.88785154 72.99691335 -352.88785154 72.99691335 -354 72 C-365.61985086 70.91868448 -376.97009919 80.61711278 -385 88 Z " fill="#223874" transform="translate(736,186)"/>
<path d="M0 0 C3.77072127 1.47882122 6.79778271 3.54040218 10 6 C10.78375 6.59167969 11.5675 7.18335938 12.375 7.79296875 C20.12124502 14.13913232 27.28653093 23.27837033 28.37109375 33.49609375 C28.78114015 57.83355359 13.3401589 78.22367959 0.99584961 98.27978516 C-5.36763 107.94015892 -5.36763 107.94015892 -8.125 118.8125 C-6.70523316 122.83517271 -5.53294724 124.57109877 -2 127 C6.30516205 129.12819778 15.38015077 124.68056082 22.41015625 120.6015625 C28.12002485 116.51864376 32.49699883 111.18716028 36.92797852 105.79907227 C39.16535453 103.07952557 41.04821087 100.96785942 44 99 C46.625 98.8125 46.625 98.8125 49 99 C49.33 99.33 49.66 99.66 50 100 C49.84064139 107.80857171 45.87661153 112.13240606 40.5078125 117.484375 C24.81859719 132.15134682 10.0764157 138.66226919 -11.2890625 138.33984375 C-22.91300506 137.87680736 -34.05890484 133.50386328 -43 126 C-51.05968014 117.26178416 -52.63830047 106.27086405 -52.3359375 94.7578125 C-50.81077536 77.69727782 -40.00410376 64.08609061 -30.23193359 50.69091797 C-16.07251174 32.65010421 -16.07251174 32.65010421 -12 11 C-12.97691857 9.31970006 -13.97388051 7.65071396 -15 6 C-14.8125 3.25 -14.8125 3.25 -14 1 C-9.73364948 -1.13317526 -4.6204545 -0.57546168 0 0 Z " fill="#FCFCFC" transform="translate(1380,243)"/>
<path d="M0 0 C0.77873978 0.13113693 1.55747955 0.26227386 2.3598175 0.39738464 C10.34662512 1.80422094 18.13849054 3.83011709 25.96258545 5.94335938 C43.74868916 10.72857789 61.5472758 14.69892081 79.70703125 17.78515625 C80.51011719 17.92920898 81.31320312 18.07326172 82.140625 18.22167969 C114.29985496 23.86601381 143.94304062 19.7904847 172.70703125 4.78515625 C179.32355915 1.34523404 184.08719198 -0.36813615 191.58203125 -0.46484375 C192.77570313 -0.490625 193.969375 -0.51640625 195.19921875 -0.54296875 C199.76590068 -0.11579583 202.8933185 1.55651213 206.64453125 4.09765625 C207.70703125 5.78515625 207.70703125 5.78515625 208.01953125 8.59765625 C205.87431723 13.80746173 201.56701703 15.28932611 196.70703125 17.78515625 C194.98226563 18.73068359 194.98226563 18.73068359 193.22265625 19.6953125 C168.34730733 33.04535318 141.37715838 38.22944867 113.39453125 38.22265625 C112.45527802 38.22372375 111.51602478 38.22479126 110.54830933 38.22589111 C92.52019469 38.19653774 75.36644025 36.29020075 57.70703125 32.78515625 C56.52222168 32.55521973 55.33741211 32.3252832 54.11669922 32.08837891 C38.84853722 29.08491059 23.72490846 25.41865735 8.62182617 21.68310547 C2.41055777 20.14904637 -3.79862938 18.64860046 -10.0625 17.33984375 C-11.07393066 17.12593994 -12.08536133 16.91203613 -13.12744141 16.69165039 C-14.95602632 16.31094295 -16.78761588 15.94423714 -18.62255859 15.59545898 C-24.13861218 14.43986735 -27.32112549 12.8388283 -31.29296875 8.78515625 C-32.04296875 6.22265625 -32.04296875 6.22265625 -31.29296875 3.78515625 C-22.29566616 -3.57627314 -10.7762617 -1.82256449 0 0 Z " fill="#E01E25" transform="translate(1134.29296875,401.21484375)"/>
<path d="M0 0 C6.0383327 4.30937125 11.70575121 9.35631893 13 17 C13.51307037 21.62604429 13.48231552 25.03536896 11.375 29.25 C5.75094486 35.76206385 0.38529723 39.18223386 -8.2265625 40.28515625 C-17.98364646 40.68164553 -26.54730475 37.15537423 -34 31 C-39.42690852 25.71808522 -42.97772544 21.28806674 -43.3125 13.5625 C-43.15015744 7.80411379 -41.41170872 4.44532083 -37.375 0.3125 C-26.16200246 -8.2071795 -11.77221317 -6.25445808 0 0 Z " fill="#FBFBFC" transform="translate(1443,171)"/>
<path d="M0 0 C0.76671801 6.80107271 0.1107695 11.2617241 -4.04296875 16.77734375 C-13.00409969 26.95475594 -25.05723145 36.99360548 -39.015625 38.27734375 C-46.62144269 38.51151301 -51.13106639 37.67767137 -56.8125 32.375 C-59.70928829 28.57531665 -60.38405216 24.7126401 -60 20 C-58.50963426 14.31798062 -55.13592902 10.60792638 -50.45922852 7.21948242 C-45.74303872 4.88081787 -40.82718335 5.46668612 -35.6875 5.75 C-24.61972212 6.20585033 -14.92154775 5.86489721 -4.875 0.8046875 C-3 0 -3 0 0 0 Z " fill="#223874" transform="translate(810,200)"/>
<path d="M0 0 C0.66 0.33 1.32 0.66 2 1 C-6.91 9.91 -15.82 18.82 -25 28 C-25.66 27.67 -26.32 27.34 -27 27 C-9.06818182 7.15909091 -9.06818182 7.15909091 0 0 Z " fill="#384B80" transform="translate(1019,142)"/>
</svg>
